<svg xmlns="http://www.w3.org/2000/svg" viewBox="0 0 800 600" role="img" aria-labelledby="title desc"><title id="title">Trabajo #8</title><desc id="desc">Ilustración editorial de un pastel para reemplazar por una fotografía real.</desc><path d="M0 70C130 5 238 35 330 6c105-33 211 8 290 54 80 46 132 38 180 6v534H0Z" fill="#F5FDC6"/><path d="M30 90c55-50 125-54 177-14-38 30-91 44-163 31Z" fill="#F5FDC6" opacity=".8"/><path d="M635 35c42 4 82 26 116 70-50 8-93 0-128-23Z" fill="#F5C1D3" opacity=".75"/><path d="M95 500c24-108 65-187 126-253M150 420c-38-14-62-42-69-83M174 372c37-13 68-38 92-73" stroke="#5A7D19" stroke-width="8" fill="none" stroke-linecap="round" opacity=".65"/><path d="M676 471c-18-91-8-168 34-230M695 391c37-7 66-27 88-60" stroke="#5A7D19" stroke-width="8" fill="none" stroke-linecap="round" opacity=".5"/><ellipse cx="410" cy="465" rx="238" ry="45" fill="#3B2A22" opacity=".18"/><ellipse cx="410" cy="443" rx="250" ry="46" fill="#FFF9F1" stroke="#A486AD" stroke-width="7"/><path d="M205 305h410v150c0 35-92 65-205 65S205 490 205 455Z" fill="#F2D374" stroke="#5A7D19" stroke-width="8"/><ellipse cx="410" cy="305" rx="205" ry="67" fill="#FFF9F1" stroke="#5A7D19" stroke-width="8"/><path d="M235 342c-14 25-14 69 0 100" stroke="#5A7D19" stroke-width="9" stroke-linecap="round" opacity=".65"/><path d="M273 342c-14 25-14 69 0 100" stroke="#5A7D19" stroke-width="9" stroke-linecap="round" opacity=".65"/><path d="M311 342c-14 25-14 69 0 100" stroke="#5A7D19" stroke-width="9" stroke-linecap="round" opacity=".65"/><path d="M349 342c-14 25-14 69 0 100" stroke="#5A7D19" stroke-width="9" stroke-linecap="round" opacity=".65"/><path d="M387 342c-14 25-14 69 0 100" stroke="#5A7D19" stroke-width="9" stroke-linecap="round" opacity=".65"/><path d="M425 342c-14 25-14 69 0 100" stroke="#5A7D19" stroke-width="9" stroke-linecap="round" opacity=".65"/><path d="M463 342c-14 25-14 69 0 100" stroke="#5A7D19" stroke-width="9" stroke-linecap="round" opacity=".65"/><path d="M501 342c-14 25-14 69 0 100" stroke="#5A7D19" stroke-width="9" stroke-linecap="round" opacity=".65"/><path d="M539 342c-14 25-14 69 0 100" stroke="#5A7D19" stroke-width="9" stroke-linecap="round" opacity=".65"/><path d="M577 342c-14 25-14 69 0 100" stroke="#5A7D19" stroke-width="9" stroke-linecap="round" opacity=".65"/><ellipse cx="410" cy="305" rx="160" ry="49" fill="none" stroke="#5A7D19" stroke-width="6" opacity=".85"/><ellipse cx="410" cy="305" rx="130" ry="40" fill="none" stroke="#5A7D19" stroke-width="6" opacity=".85"/><ellipse cx="410" cy="305" rx="100" ry="31" fill="none" stroke="#5A7D19" stroke-width="6" opacity=".85"/><ellipse cx="410" cy="305" rx="70" ry="21" fill="none" stroke="#5A7D19" stroke-width="6" opacity=".85"/><ellipse cx="410" cy="305" rx="42" ry="18" fill="none" stroke="#5A7D19" stroke-width="6" opacity=".85"/><path d="M307 285c4-30 34-32 40-4 4 23-17 39-21 42-8-7-23-19-19-30Z" fill="#C94A68" stroke="#5A7D19" stroke-width="4"/><path d="M325 263c4-10 13-15 24-12-5 11-13 16-24 12Z" fill="#5A7D19"/><path d="M392 261c4-30 34-32 40-4 4 23-17 39-21 42-8-7-23-19-19-30Z" fill="#C94A68" stroke="#5A7D19" stroke-width="4"/><path d="M410 239c4-10 13-15 24-12-5 11-13 16-24 12Z" fill="#5A7D19"/><path d="M477 289c4-30 34-32 40-4 4 23-17 39-21 42-8-7-23-19-19-30Z" fill="#C94A68" stroke="#5A7D19" stroke-width="4"/><path d="M495 267c4-10 13-15 24-12-5 11-13 16-24 12Z" fill="#5A7D19"/><g transform="translate(35 28) rotate(-4)"><path d="M8 5h240l12 17-10 72H8L0 19Z" fill="#FFF9F1" stroke="#5A7D19" stroke-width="5" stroke-dasharray="10 8"/><text x="26" y="45" font-family="Trebuchet MS, sans-serif" font-size="25" font-weight="700" fill="#5A7D19">Trabajo #8</text><text x="27" y="72" font-family="Trebuchet MS, sans-serif" font-size="15" fill="#A486AD">imagen editable</text></g></svg>